<svg id="Layer_1" data-name="Layer 1" xmlns="http://www.w3.org/2000/svg" viewBox="0 0 670 220"><defs><style>.cls-1{fill:#ed3e7a;}</style></defs><title>Logo</title><path class="cls-1" d="M49,207.17c21.12-25.53,2.2-62-15.07-90.71-10.41-17.28-16.61-31.35-19-43-3.23-15.85,1.78-32.9,13.42-45.59,8-8.7,13.94-12.2,19.22-14.67C52.7,10.79,61.18,8,68.24,8H69c14.77.41,25.52,5.58,34.88,16.73,2.83,3.38,5.53,6.83,8,10.28a66.12,66.12,0,0,1,10.66-12.2C133.42,13.18,146.88,7.06,159.47,6c1.12-.1,2.27-.15,3.41-.15,12.6,0,25.85,5.69,35.45,15.21C215.16,37.8,218.65,64.75,207.91,95c-7.27,20.48-21,48.92-45.35,68.11a87.72,87.72,0,0,1-13.2,8.28c-2.1,1.17-4.32,2.39-6.72,3.81h0c18.15-15.78,27.75-42.9,35.17-65.42,3.55-10.75,11-37.47,1.9-61.8-5.75-15.42-14.8-22.6-28.48-22.6a21.91,21.91,0,0,0-16.08,6.28c-7,6.68-11.36,12.44-13.78,18a128.33,128.33,0,0,1,6.9,14c3.53,8.45,10.1,24.17,0,32.26-1,.8-4.37,2.78-9.81,6-4.1,2.39-8.75,5.12-9.89,6L106,109.82l-1.46-2.91c-5.84-11.6-7.57-26.29-4.87-41.42A63.39,63.39,0,0,0,92.26,50.7C86.88,43.09,77.2,34.33,69.74,30.31a16.16,16.16,0,0,0-7.71-2c-5.51,0-11,3-15.78,8.61-4.13,4.83-5.79,13.71-4.45,23.75C43,69.24,50.57,84.05,58.64,99.73c6.93,13.45,14.09,27.36,18.49,39.69,5,13.88,1.58,30.9-3.94,41.62-3.29,6.39-12.27,14.82-18.82,21-2.19,2.06-4.1,3.84-5.36,5.15Z"/><path class="cls-1" d="M375.08,166.21V26.64h27.43v7.71A43.11,43.11,0,0,1,407.94,31c7.48-4.06,15.07-4.39,24.22-4.39h7.49l0,26.48-3.06-.36s-.9-.09-2.38-.09a36.68,36.68,0,0,0-20.61,6.15c-4.5,3.13-6.53,7.85-8.05,12.49-1.38,4.19-2.07,10.13-2.07,17.64v77.29Z"/><path class="cls-1" d="M450.28,166.21V26.64H477.7v7.71A44.6,44.6,0,0,1,483.13,31c7.49-4.06,15.08-4.39,24.22-4.39h6.43L527.12,53l-4.79-.29s-1.69-.11-4.3-.11c-6.12,0-21.22.61-29.27,6.19-4.5,3.13-6.52,7.85-8.05,12.49-1.37,4.19-2.07,10.13-2.07,17.64v77.29Z"/><path class="cls-1" d="M290.81,169.1A73,73,0,1,1,337,39.6v-13h27.43V166.21H337V152.63A72.52,72.52,0,0,1,290.81,169.1ZM291.26,51A45.74,45.74,0,1,0,337,96.77,45.79,45.79,0,0,0,291.26,51Z"/><polygon class="cls-1" points="530.08 215.63 574.66 126.95 524.5 26.64 556.34 26.64 590.46 95.59 625.15 26.64 658.02 26.64 563.27 215.63 530.08 215.63"/></svg>